<?xml version="1.0" encoding="UTF-8" standalone="no"?>
<svg viewBox="0 0 16 16" version="1.1" width="16" height="16" xmlns:xlink="http://www.w3.org/1999/xlink"
   xmlns="http://www.w3.org/2000/svg" xmlns:svg="http://www.w3.org/2000/svg">
   <g transform="matrix(0.18346498,0,0,0.18331925,-1.1977064,-0.54556109)" style="fill:#000000;fill-opacity:1">
      <g transform="translate(0,-957.3622)" fill="#000000">
         <path
            d="m 36.429688,2.9765625 c -0.565498,0.0459 -2.287311,2.9237738 -6.214844,10.9648435 -4.012952,8.21594 -6.827865,13.655433 -8.660156,17.632813 -15.0158987,6.22762 -22.12555101,5.65054 -5.230469,13.625 1.486953,0.7019 2.888188,1.338175 4.224609,1.921875 0.01131,0.027 0.01984,0.05112 0.03125,0.07813 -6.76705,6.2341 -9.512748,8.012443 3.441406,13.714843 -0.0065,0.089 -0.0201,0.151029 -0.02734,0.236329 2.111671,-0.1542 4.018927,-0.39631 4.603515,-0.91211 0.796639,-0.703 1.052603,-1.48215 1.166016,-3.03125 -9.595764,-4.2241 -7.56346,-5.540303 -2.550781,-10.158203 -0.0084,-0.02 -0.01309,-0.03859 -0.02148,-0.05859 -0.989951,-0.4323 -2.029402,-0.903928 -3.130859,-1.423828 -12.514999,-5.90706 -7.247997,-5.478697 3.875,-10.091797 1.357267,-2.94623 3.443431,-6.97655 6.416015,-13.0625 0.476811,-0.9762 0.843869,-1.698222 1.236329,-2.476562 C 35.35704,19.798016 35.106304,19.64105 34.890633,19.51954 34.768695,19.34228 34.651472,19.155801 34.546883,18.945321 33.320732,16.477822 37.673791,2.8756315 36.429696,2.9765715 Z m 27.421874,7.3828125 c -1.441718,-0.0641 -3.943761,2.314325 -8.58789,7.796875 -0.246654,0.29117 -0.445593,0.547421 -0.683594,0.832031 -2.573992,-0.4485 -4.558882,-0.699769 -6.214844,-0.724609 -3.723241,-0.0558 -5.799855,1.052507 -9.158203,3.617187 -0.296731,-0.0934 -0.721393,-0.21821 -0.980469,-0.30664 -0.119472,-0.0761 -0.224317,-0.142007 -0.341796,-0.216797 -0.406284,2.1105 -0.675568,4.054669 -0.324219,4.761719 0.07747,0.15591 0.163586,0.294471 0.253906,0.425781 0.719042,0.4051 1.556295,0.938994 2.470703,1.521484 0.191909,0.0655 0.50676,0.157363 0.726563,0.226563 2.48769,-1.89979 4.02522,-2.720988 6.783203,-2.679688 1.226651,0.0184 2.696835,0.20489 4.603516,0.53711 0.176299,-0.21082 0.325103,-0.399555 0.507812,-0.615235 7.863153,-9.28271 7.434986,-6.55546 8.287109,2.34375 1.63411,0.3304 3.284184,0.664601 5.294922,1.056641 0.930876,0.18149 1.681437,0.337794 2.449219,0.496094 0.228311,-0.45168 0.533677,-0.836475 0.949219,-1.203125 3.005204,-2.65165 31.820381,-3.89e-4 3.71289,-5.480469 -2.714474,-0.52924 -4.940457,-0.981695 -7.146484,-1.427735 -0.647075,-6.75777 -0.747923,-10.878487 -2.601563,-10.960937 z m 4.490235,21.724609 c -2.111671,0.15425 -4.018928,0.3963 -4.603516,0.91211 -0.795672,0.70206 -1.052062,1.48003 -1.166015,3.02539 9.599582,4.22512 7.566091,5.5436 2.552734,10.16211 0.0096,0.023 0.01589,0.04145 0.02539,0.06445 0.988181,0.4313 2.025735,0.900922 3.125,1.419922 12.516113,5.9075 7.246128,5.47935 -3.878907,10.09375 -1.356497,2.9481 -3.430419,6.966093 -6.40625,13.058593 -0.461302,0.944501 -0.852127,1.721469 -1.234375,2.480469 0.233439,0.1387 0.48713,0.297322 0.705079,0.419922 0.118974,0.1742 0.229625,0.358353 0.332031,0.564453 1.783541,3.5892 -8.234141,30.737267 4.333984,5.00586 4.017332,-8.2249 6.819138,-13.648907 8.650391,-17.628907 15.018649,-6.2294 22.130961,-5.651853 5.234375,-13.626953 -1.483993,-0.7005 -2.882765,-1.333815 -4.216797,-1.916015 -0.01277,-0.031 -0.02226,-0.05689 -0.03516,-0.08789 6.767965,-6.23491 9.513994,-8.012927 -3.445313,-13.716797 0.0064,-0.0868 0.02024,-0.147149 0.02734,-0.230469 z m -18.253906,1.398438 c -1.859439,0.148223 -5.222913,5.117952 -6.763672,5.902344 -1.643477,0.836684 -8.359199,0.548995 -8.929688,2.302734 -0.570489,1.753739 5.028551,5.469804 5.865235,7.113281 0.836684,1.643477 0.548995,8.359199 2.302734,8.929688 1.753739,0.570489 5.469804,-5.028551 7.113281,-5.865235 C 51.319258,51.02855 58.03498,51.316239 58.605469,49.5625 59.175958,47.808761 53.576918,44.092696 52.740234,42.449219 51.90355,40.805742 52.191239,34.09002 50.4375,33.519531 50.327891,33.483876 50.211853,33.47254 50.087891,33.482422 Z M 23.398438,63.802734 c -0.228343,0.452 -0.533238,0.836025 -0.949219,1.203125 -3.005204,2.6517 -31.8203847,3.69e-4 -3.712891,5.480469 3.04015,0.5928 4.742444,0.943941 7.150391,1.431641 1.149608,12.009 0.575993,15.687603 11.189453,3.158203 0.248406,-0.2933 0.449761,-0.551291 0.689453,-0.837891 8.326666,1.4443 10.52331,0.812528 15.369141,-2.888672 0.284369,0.09 0.70145,0.212075 0.951172,0.296875 0.127653,0.081 0.239867,0.150669 0.365234,0.230469 0.406306,-2.1114 0.679597,-4.058325 0.328125,-4.765625 -0.07586,-0.1527 -0.157964,-0.288969 -0.246094,-0.417969 -0.726434,-0.4086 -1.573628,-0.945056 -2.5,-1.535156 -0.18498,-0.063 -0.494433,-0.153703 -0.705078,-0.220703 -3.58954,2.7416 -5.216805,3.210425 -11.384766,2.140625 -0.177552,0.2123 -0.325759,0.401941 -0.509765,0.619141 -7.8619,9.2812 -7.437493,6.557809 -8.289063,-2.337891 -1.783682,-0.3613 -3.04489,-0.621447 -5.296875,-1.060547 -0.930876,-0.1815 -1.681438,-0.337794 -2.449218,-0.496094 z"
            transform="translate(0,957.3622)" fill-rule="evenodd" stroke="none" fill="#000000" />
      </g>
   </g>
</svg>