<svg width="31" height="20" viewBox="0 0 31 20" fill="none" xmlns="http://www.w3.org/2000/svg">
  <path fill-rule="evenodd" clip-rule="evenodd"
    d="M30.0335 9.45333L20.7995 4.49463L20.49 4.31843C20.232 4.21775 19.9483 4.16741 19.6646 4.16741C19.3808 4.16741 19.0971 4.21775 18.8392 4.31843L18.4781 4.5198L17.0336 5.3001C17.0078 5.32527 17.0078 5.35045 17.0336 5.37562L17.6269 5.67767L21.109 7.54033L23.1725 8.64785C23.1725 8.64785 20.1288 8.77371 17.3174 10.3595C16.8015 10.6615 16.2082 10.8126 15.615 10.8126H15.486C14.8928 10.8126 14.2995 10.6615 13.7836 10.3595C10.9722 8.77371 7.92852 8.64785 7.92852 8.64785L15.5376 4.54497L18.2459 3.05988C18.5296 2.90885 19.5098 2.30475 20.6189 2.63197C21.109 2.75783 21.9344 3.21091 22.605 3.58847C23.1467 3.89052 23.8173 3.78984 24.23 3.31159C24.4364 3.05988 24.5395 2.783 24.5395 2.48095C24.5395 2.05304 24.3332 1.6503 23.9205 1.39859C23.0435 0.869997 21.8312 0.240721 20.8511 0.0896946C18.3233 -0.338213 16.7241 0.869997 15.5118 1.49927C14.5832 0.769313 12.7003 -0.313042 10.1984 0.0896946C9.1924 0.265892 8.0059 0.869997 7.12893 1.39859C6.4583 1.80133 6.30353 2.70748 6.8194 3.28642C7.07734 3.5633 7.43845 3.71433 7.79956 3.71433C8.0317 3.71433 8.23805 3.66398 8.44439 3.53813C9.11502 3.16056 9.94042 2.70748 10.4305 2.58163C11.746 2.22923 12.8809 3.05988 12.8809 3.05988L0.990076 9.45333C0.680554 9.60435 0.5 9.93158 0.5 10.2588V11.8446C0.5 12.1718 0.680554 12.4739 0.990076 12.6501C1.2996 12.8011 1.37698 12.9018 1.37698 13.4807C1.37698 14.4875 0.680554 20 8.05749 20C14.6864 20 13.861 13.6821 15.5118 13.7072C17.1884 13.6821 16.363 20 22.9661 20C30.3431 20 29.6466 14.4875 29.6466 13.4807C29.6466 12.9018 29.6982 12.8262 30.0077 12.6501C30.3173 12.499 30.4978 12.1718 30.4978 11.8446V10.2588C30.5236 9.90641 30.3173 9.60435 30.0335 9.45333ZM11.488 16.1488C10.7658 17.6339 9.50193 17.8605 7.67059 17.7849C6.30353 17.7346 5.03965 17.3067 4.39482 16.5767C3.46625 15.5447 3.56942 12.4487 3.93053 11.7691C4.62696 10.4602 11.0237 10.8629 11.8749 12.5242C11.9781 12.7004 12.5456 14.0093 11.488 16.1488ZM26.6288 16.5767C25.984 17.2815 24.7201 17.7094 23.353 17.7849C21.5475 17.8605 20.2836 17.6339 19.5356 16.1488C18.4781 14.0093 19.0455 12.7004 19.1229 12.5242C19.9741 10.8629 26.3967 10.4602 27.0673 11.7691C27.4542 12.4739 27.5574 15.5699 26.6288 16.5767Z"
    fill-opacity="1" fill="#0062e3" />
</svg>