<svg id="Layer_1" data-name="Layer 1" xmlns="http://www.w3.org/2000/svg" xmlns:xlink="http://www.w3.org/1999/xlink"
  viewBox="0 0 70.37 70.54">
  <defs>
    <style>
      .cls-1 {
        fill: none;
      }

      .cls-2 {
        clip-path: url(#clip-path);
      }

      .cls-3 {
        fill: url(#linear-gradient);
      }

      .cls-4 {
        fill: #fff;
        fill-rule: evenodd;
      }
    </style>
    <clipPath id="clip-path">
      <rect class="cls-1" width="70.37" height="70.54" />
    </clipPath>
    <linearGradient id="linear-gradient" x1="35.19" y1="70.54" x2="35.19" gradientUnits="userSpaceOnUse">
      <stop offset="0" stop-color="#6ba542" />
      <stop offset="1" stop-color="#a4cf60" />
    </linearGradient>
  </defs>
  <g class="cls-2">
    <rect class="cls-3" width="70.37" height="70.54" />
    <path class="cls-4"
      d="M14.37,11.65h5.08c5.13,0,10.26-.05,15.39,0a16.46,16.46,0,0,1,9.86,3.08,10.67,10.67,0,0,1,4.54,7.12c.59,3.95-.17,7.54-3.24,10.36a15.14,15.14,0,0,1-5.65,3.11l-.42.14s0,.05-.07.08l3,2.25a50.92,50.92,0,0,1,7.55,7.49c2.12,2.42,4.21,4.88,6.39,7.24s2.9,3.44,8.08,4.38l7.51.43c.66,0,0,1.35,0,1.35H66.74s-4.94-.06-7-.17a15.51,15.51,0,0,1-8.94-3.73,52.22,52.22,0,0,1-6.18-6.35c-2.1-2.37-4.15-4.81-6.39-7.05-1.77-1.76-3.81-3.27-5.73-4.89l-.22-.18.61-.21a17.88,17.88,0,0,0,6.21-3.44,10,10,0,0,0,3.4-5.74,11.8,11.8,0,0,0-.48-7,10.07,10.07,0,0,0-6.55-5.84A14.66,14.66,0,0,0,31,13.45c-1.58,0-3.16,0-4.74,0l-.3,0V14q0,18.14,0,36.26a18,18,0,0,0,.41,3.66,4,4,0,0,0,4,3.32c.95.07.95.07.95,1,0,.13,0,.26,0,.45h-17V57.34l1.08-.09a3.74,3.74,0,0,0,3.83-3.19,20.17,20.17,0,0,0,.43-4.1q.06-14.87,0-29.75a25.85,25.85,0,0,0-.34-3.72,3.54,3.54,0,0,0-2.86-3.23A19.61,19.61,0,0,0,14.37,13Z" />
  </g>
</svg>