<svg version="1.2" baseProfile="tiny-ps" xmlns="http://www.w3.org/2000/svg" viewBox="0 0 256 256" width="256" height="256">
	<title>favicon-svg</title>
	<style>
		tspan { white-space:pre }
		.shp0 { fill: #888888 } 
	</style>
	<g id="Layer_2">
		<g id="Layer_1-2">
			<path id="Layer" class="shp0" d="M35.35 43.68L3.05 44.6L0 41.55L2.13 13.21L76.8 13.21L76.3 43.68L35.35 43.68L35.35 43.68Z" />
			<path id="Layer" class="shp0" d="M74.67 144.86L75.28 172.6C75.28 184.18 73.35 194.03 69.49 202.16C65.7 210.29 59.46 217.5 50.79 223.8C42.13 230.1 30.27 236.09 15.24 241.78L2.74 219.83L2.74 216.18C15.34 209.68 24.23 203.23 29.41 196.83C34.59 190.43 37.18 182.15 37.18 171.99L37.18 148.83L36.07 85.13L75.63 85.13L74.67 144.86Z" />
			<path id="Layer" class="shp0" d="M255.97 200.03L255.36 204.6C252.1 205.75 248.8 206.8 245.47 207.73C242.13 208.65 238.77 209.45 235.39 210.14C231.99 210.83 228.58 211.4 225.15 211.85C221.72 212.3 218.28 212.62 214.83 212.83L210.55 209.47C195.93 184.28 184.05 162.34 174.9 143.64L145.34 143.64L145.34 147.61L147.17 209.78L105.72 209.78L107.86 151.26L106.84 85.43L146.46 85.43L145.98 111.64L176.15 112.86C190.17 108.08 198.5 98.94 201.14 85.43L243.86 85.43C243.48 87.25 243.03 89.05 242.49 90.83C241.96 92.6 241.35 94.35 240.66 96.08C239.97 97.8 239.22 99.49 238.38 101.15C237.55 102.81 236.65 104.43 235.67 106.01C229.28 116.47 220.29 125.05 208.71 131.76C224.55 156.95 240.29 179.71 255.97 200.03Z" />
			<path id="Layer" class="shp0" d="M228.57 28.29C229.78 29.39 230.93 30.54 232.02 31.75C233.11 32.97 234.14 34.22 235.09 35.55C236.05 36.87 236.94 38.23 237.75 39.64C238.57 41.05 239.31 42.5 239.98 43.99L106.17 43.99L105.7 13.51L180.98 13.21C201.49 13.21 217.36 18.23 228.57 28.29L228.57 28.29Z" />
		</g>
	</g>
</svg>