<?xml version="1.0" encoding="UTF-8"?>
<svg id="uuid-56de059e-48fb-4616-8abb-6256ea08591d" data-name="Layer 1" xmlns="http://www.w3.org/2000/svg" xmlns:xlink="http://www.w3.org/1999/xlink" viewBox="0 0 512 512">
  <defs>
    <style>
      .uuid-8aa15951-912b-484d-9c83-a75bebc5fac1 {
        fill: url(#uuid-bbc77060-8b75-4a4c-9a20-32c4caf17170);
        fill-rule: evenodd;
      }
    </style>
    <linearGradient id="uuid-bbc77060-8b75-4a4c-9a20-32c4caf17170" x1="-876.45" y1="478.28" x2="-871.79" y2="478.28" gradientTransform="translate(87667.96 52910.17) scale(100 -110.09)" gradientUnits="userSpaceOnUse">
      <stop offset="0" stop-color="#a78bfa"/>
      <stop offset="1" stop-color="#2dd4bf"/>
    </linearGradient>
  </defs>
  <g transform="matrix(1.2613611714553135,0,0,1.2613611714553135,-8.234481943284555,-3.7538274755242695)">
    <g transform="translate(0,-957.3622)">
      <path d="M198.87,0c-3.32,.27-13.42,17.15-36.46,64.32-23.54,48.2-40.05,80.11-50.8,103.44-88.09,36.53-129.79,33.15-30.68,79.93,8.72,4.12,16.94,7.85,24.78,11.27,.07,.16,.12,.3,.18,.46-39.7,36.57-55.8,47,20.19,80.45-.04,.52-.12,.89-.16,1.39,12.39-.9,23.58-2.32,27.01-5.35,4.67-4.12,6.17-8.69,6.84-17.78-56.29-24.78-44.37-32.5-14.96-59.59-.05-.12-.08-.23-.13-.34-5.81-2.54-11.9-5.3-18.37-8.35-73.42-34.65-42.52-32.14,22.73-59.2,7.96-17.28,20.2-40.93,37.64-76.63,2.8-5.73,4.95-9.96,7.25-14.53-1.35-.81-2.83-1.73-4.09-2.44-.72-1.04-1.4-2.13-2.02-3.37C180.64,79.2,206.17-.59,198.87,0Zm160.86,43.31c-8.46-.38-23.13,13.58-50.38,45.74-1.45,1.71-2.61,3.21-4.01,4.88-15.1-2.63-26.74-4.11-36.46-4.25-21.84-.33-34.02,6.17-53.72,21.22-1.74-.55-4.23-1.28-5.75-1.8-.7-.45-1.32-.83-2.01-1.27-2.38,12.38-3.96,23.79-1.9,27.93,.45,.91,.96,1.73,1.49,2.5,4.22,2.38,9.13,5.51,14.49,8.93,1.13,.38,2.97,.92,4.26,1.33,14.59-11.14,23.61-15.96,39.79-15.72,7.2,.11,15.82,1.2,27.01,3.15,1.03-1.24,1.91-2.34,2.98-3.61,46.13-54.45,43.62-38.46,48.61,13.75,9.59,1.94,19.27,3.9,31.06,6.2,5.46,1.06,9.86,1.98,14.37,2.91,1.34-2.65,3.13-4.91,5.57-7.06,17.63-15.56,186.67,0,21.78-32.15-15.92-3.1-28.98-5.76-41.92-8.38-3.8-39.64-4.39-63.82-15.26-64.3Zm26.34,127.44c-12.39,.9-23.58,2.32-27.01,5.35-4.67,4.12-6.17,8.68-6.84,17.75,56.31,24.79,44.38,32.52,14.97,59.61,.06,.13,.09,.24,.15,.38,5.8,2.53,11.88,5.28,18.33,8.33,73.42,34.65,42.51,32.14-22.75,59.21-7.96,17.29-20.12,40.86-37.58,76.6-2.71,5.54-5,10.1-7.24,14.55,1.37,.81,2.86,1.74,4.14,2.46,.7,1.02,1.35,2.1,1.95,3.31,10.46,21.06-48.3,180.31,25.42,29.37,23.57-48.25,40-80.07,50.75-103.41,88.1-36.54,129.82-33.15,30.71-79.94-8.71-4.11-16.91-7.82-24.74-11.24-.07-.18-.13-.33-.21-.52,39.7-36.58,55.81-47.01-20.21-80.47,.04-.51,.12-.86,.16-1.35Zm-107.08,8.2c-10.91,.87-30.64,30.02-39.68,34.62-9.64,4.91-49.04,3.22-52.38,13.51-3.35,10.29,29.5,32.09,34.41,41.73,4.91,9.64,3.22,49.04,13.51,52.38s32.09-29.5,41.73-34.41c9.64-4.91,49.04-3.22,52.38-13.51,3.35-10.29-29.5-32.09-34.41-41.73-4.91-9.64-3.22-49.04-13.51-52.38-.64-.21-1.32-.28-2.05-.22ZM122.43,356.82c-1.34,2.65-3.13,4.9-5.57,7.06-17.63,15.56-186.67,0-21.78,32.15,17.83,3.48,27.82,5.54,41.95,8.4,6.74,70.45,3.38,92.03,65.64,18.53,1.46-1.72,2.64-3.23,4.04-4.92,48.85,8.47,61.73,4.77,90.16-16.95,1.67,.53,4.11,1.24,5.58,1.74,.75,.48,1.41,.88,2.14,1.35,2.38-12.39,3.99-23.81,1.92-27.96-.45-.9-.93-1.7-1.44-2.45-4.26-2.4-9.23-5.54-14.67-9.01-1.09-.37-2.9-.9-4.14-1.29-21.06,16.08-30.6,18.83-66.79,12.56-1.04,1.25-1.91,2.36-2.99,3.63-46.12,54.45-43.63,38.47-48.63-13.71-10.46-2.12-17.86-3.65-31.07-6.22-5.46-1.06-9.86-1.98-14.37-2.91Z" fill="#uuid-bbc77060-8b75-4a4c-9a20-32c4caf17170" fill-rule="evenodd"/>
    </g>
  </g>
</svg>