<svg xmlns="http://www.w3.org/2000/svg" viewBox="0 0 251.95 225">
  <defs>
    <style>
      .cls-1 {
        fill: #18ffff;
      }

      .cls-2 {
        fill: #ffffff;
      }
    </style>
  </defs>
  <g id="Layer_2" data-name="Layer 2">
    <g id="Layer_1-2" data-name="Layer 1">
      <polygon class="cls-1" points="34.8 30 75.11 30 75.6 0 2.1 0 0 27.9 3 30.9 34.8 30" />
      <path class="cls-2"
        d="M74.45,70.8H35.51l1.09,62.7v22.8q0,15-7.65,24.45T2.7,199.8v3.6L15,225q22.2-8.4,35-17.7T68.4,186q5.7-12,5.7-29.1l-.6-27.3Z" />
      <path class="cls-2"
        d="M205.45,116.7q17.1-9.9,26.54-25.35a63.16,63.16,0,0,0,8.06-20.25H198q-3.9,19.94-24.6,27l-29.7-1.2.47-25.8h-39l1,64.8-2.1,57.6h40.8l-1.8-61.2v-3.9h29.1q13.5,27.6,35.09,64.8l4.21,3.3a144.63,144.63,0,0,0,39.9-8.1l.6-4.5Q228.83,153.9,205.45,116.7Z" />
      <path class="cls-1" d="M225,14.85Q208.44,0,178.15,0l-74.1.3.46,30H236.23A46.4,46.4,0,0,0,225,14.85Z" />
    </g>
  </g>
</svg>
