<svg width="24" height="24" viewBox="0 0 24 24" fill="none" xmlns="http://www.w3.org/2000/svg">
  <path fill-rule="evenodd" clip-rule="evenodd"
    d="M21.1968 11.3367L15.1947 8.01281L14.9935 7.8947C14.8258 7.82721 14.6414 7.79346 14.457 7.79346C14.2725 7.79346 14.0881 7.82721 13.9205 7.8947L13.6857 8.02968L12.7469 8.55273C12.7301 8.5696 12.7301 8.58647 12.7469 8.60334L13.1325 8.80581L15.3958 10.0544L16.7371 10.7968C16.7371 10.7968 14.7587 10.8811 12.9313 11.9441C12.596 12.1466 12.2104 12.2478 11.8247 12.2478H11.7409C11.3553 12.2478 10.9697 12.1466 10.6344 11.9441C8.8069 10.8811 6.82854 10.7968 6.82854 10.7968L11.7744 8.04655L13.5348 7.05108C13.7193 6.94984 14.3564 6.5449 15.0773 6.76424C15.3958 6.84861 15.9324 7.15231 16.3683 7.4054C16.7203 7.60787 17.1563 7.54038 17.4245 7.2198C17.5586 7.05108 17.6257 6.86548 17.6257 6.66301C17.6257 6.37618 17.4916 6.10622 17.2233 5.93749C16.6533 5.58317 15.8653 5.16136 15.2282 5.06012C13.5851 4.77329 12.5457 5.58317 11.7577 6.00498C11.1541 5.51568 9.93021 4.79016 8.30393 5.06012C7.65006 5.17823 6.87884 5.58317 6.3088 5.93749C5.87289 6.20745 5.7723 6.81486 6.10761 7.20293C6.27527 7.38852 6.50999 7.48976 6.74471 7.48976C6.8956 7.48976 7.02973 7.45601 7.16386 7.37165C7.59977 7.11857 8.13627 6.81486 8.45482 6.7305C9.30987 6.49428 10.0476 7.05108 10.0476 7.05108L2.31855 11.3367C2.11736 11.4379 2 11.6573 2 11.8766V12.9396C2 13.1589 2.11736 13.3614 2.31855 13.4795C2.51974 13.5807 2.57004 13.6482 2.57004 14.0363C2.57004 14.7112 2.11736 18.4062 6.91237 18.4062C11.2212 18.4062 10.6847 14.1713 11.7577 14.1881C12.8475 14.1713 12.3109 18.4062 16.603 18.4062C21.398 18.4062 20.9453 14.7112 20.9453 14.0363C20.9453 13.6482 20.9788 13.5976 21.18 13.4795C21.3812 13.3783 21.4986 13.1589 21.4986 12.9396V11.8766C21.5154 11.6404 21.3812 11.4379 21.1968 11.3367ZM9.14222 15.8248C8.67277 16.8202 7.85125 16.9721 6.66088 16.9215C5.7723 16.8877 4.95077 16.6009 4.53163 16.1116C3.92806 15.4198 3.99513 13.3445 4.22985 12.889C4.68252 12.0116 8.84043 12.2815 9.3937 13.3951C9.46077 13.5132 9.82961 14.3906 9.14222 15.8248ZM18.9837 16.1116C18.5646 16.584 17.7431 16.8709 16.8545 16.9215C15.6809 16.9721 14.8593 16.8202 14.3731 15.8248C13.6857 14.3906 14.0546 13.5132 14.1049 13.3951C14.6582 12.2815 18.8328 12.0116 19.2687 12.889C19.5202 13.3614 19.5873 15.4367 18.9837 16.1116Z"
    fill="#0062E3" />
</svg>